<?xml version="1.0" ?><!DOCTYPE svg  PUBLIC '-//W3C//DTD SVG 1.1//EN'  'http://www.w3.org/Graphics/SVG/1.1/DTD/svg11.dtd'><svg enable-background="new 0 0 128 128" height="128px" id="Layer_1" version="1.1" viewBox="0 0 128 128" width="128px" xml:space="preserve" xmlns="http://www.w3.org/2000/svg" xmlns:xlink="http://www.w3.org/1999/xlink"><path d="M127.501,100.88c0,2.242-1.818,4.061-4.061,4.061H5.562c-2.242,0-4.061-1.818-4.061-4.061V24.823  c0-2.242,1.818-4.061,4.061-4.061H123.44c2.242,0,4.061,1.818,4.061,4.061V100.88z" fill="#808080"/><g><path clip-rule="evenodd" d="M18.919,70.178c0.371-1.651,0.716-3.22,1.074-4.785   c0.31-1.345,0.543-2.66-1.259-3.152c-2.46-0.67-3.983-0.08-4.518,1.731c-0.092,0.313-0.18,0.628-0.268,0.943   c-1.678,5.954-1.678,5.954-8.245,5.318c0.32-1.317,0.602-2.616,0.955-3.894c1.654-5.988,3.361-11.96,4.971-17.959   c0.336-1.253,0.78-1.856,2.223-1.796c3.724,0.151,7.469-0.068,11.179,0.209c4.965,0.374,6.537,2.88,4.563,7.443   c-0.854,1.976-2.576,3.578-3.929,5.381c1.726,0.789,1.708,2.623,1.289,4.599c-0.401,1.893-0.786,3.789-1.235,5.962   C23.818,70.178,21.536,70.178,18.919,70.178z M16.184,57.021c1.903-0.114,3.469-0.065,4.978-0.337   c1.598-0.289,2.299-1.669,2.001-3.064c-0.125-0.586-1.504-1.035-2.387-1.292c-0.717-0.211-1.568-0.157-2.317-0.005   c-0.463,0.093-1.063,0.499-1.227,0.913C16.812,54.3,16.6,55.448,16.184,57.021z" fill="#FFFFFF" fill-rule="evenodd"/><path clip-rule="evenodd" d="M47.465,70.387c1.554-5.624,3.047-11.031,4.546-16.438   c0.576-2.079,1.111-4.173,1.789-6.218c0.152-0.459,0.828-1.057,1.265-1.059c3.857-0.017,7.727-0.081,11.568,0.197   c4.126,0.298,5.851,2.795,5.131,6.875c-1.029,5.833-4.937,9.174-10.875,9.293c-4.444,0.091-4.444,0.091-5.626,4.264   c-0.875,3.092-0.875,3.091-4.113,3.086C49.989,70.386,48.827,70.387,47.465,70.387z M58.077,57.527   c1.842-0.167,3.35-0.155,4.785-0.473c1.555-0.345,2.178-1.698,2.132-3.141c-0.047-1.515-1.418-1.484-2.504-1.571   c-3.014-0.242-3.02-0.222-3.808,2.704C58.499,55.724,58.349,56.413,58.077,57.527z" fill="#FFFFFF" fill-rule="evenodd"/><path clip-rule="evenodd" d="M71.372,58.218c0.839-2.689,2.39-4.18,4.574-4.999   c3.224-1.208,6.539-1.264,9.84-0.382c2.376,0.634,3.327,2.228,2.742,4.623c-0.76,3.11-1.698,6.177-2.51,9.275   c-0.29,1.115-0.434,2.27-0.686,3.632c-1.977-0.4-4.353,0.874-6.63-1.038c-1.044,0.386-2.515,1.119-4.075,1.468   c-3.201,0.718-5.437-0.103-6.143-2.004c-0.859-2.313,0.679-6.309,3.146-7.37c1.832-0.788,3.875-1.093,5.837-1.564   c1.077-0.259,2.271-0.224,3.236-0.686c0.672-0.321,1.047-1.265,1.555-1.931c-0.74-0.284-1.466-0.633-2.229-0.826   c-0.337-0.084-0.907,0.024-1.108,0.265C76.854,59.15,74.107,57.779,71.372,58.218z M80.701,62.481   c-1.791,0.68-3.356,1.152-4.787,1.889c-0.451,0.232-0.783,1.204-0.703,1.771c0.046,0.332,1.007,0.731,1.572,0.759   C78.923,67.005,80.291,65.525,80.701,62.481z" fill="#FFFFFF" fill-rule="evenodd"/><path clip-rule="evenodd" d="M90.627,52.948c2.153,0,4.092,0,6.254,0c0,3.29,0,6.501,0,9.713   c0.161,0.048,0.321,0.096,0.482,0.145c1.187-2.201,2.571-4.318,3.506-6.621c1.095-2.692,2.786-3.864,5.659-3.336   c0.556,0.102,1.145,0.015,1.884,0.015c-0.115,0.424-0.132,0.678-0.247,0.877c-3.602,6.231-7.169,12.484-10.839,18.675   c-2.877,4.855-5.458,5.901-11.343,4.756c0.358-1.316,0.626-2.659,1.121-3.911c0.171-0.432,0.881-0.848,1.393-0.913   c2.584-0.335,3.152-0.882,3.016-3.538c-0.257-4.966-0.587-9.93-0.885-14.895C90.613,53.66,90.627,53.402,90.627,52.948z" fill="#FFFFFF" fill-rule="evenodd"/><path clip-rule="evenodd" d="M38.457,52.877c-0.745,2.746-1.443,5.319-2.142,7.889   c-0.171,0.633-0.499,1.269-0.479,1.895c0.029,0.894,0.312,1.778,0.488,2.667c1.062-0.282,2.332-0.3,3.125-0.924   c0.731-0.575,1.07-1.763,1.371-2.745c0.875-2.872,1.646-5.776,2.47-8.717c2.056,0,4.005,0,6.137,0   c-0.088,0.559-0.12,1.06-0.249,1.533c-1.293,4.736-2.642,9.457-3.883,14.206c-0.335,1.282-0.844,1.904-2.27,1.733   c-1.216-0.145-2.465-0.03-3.813-0.03c0.067-0.756,0.124-1.376,0.138-1.552c-2.095,0.648-4.243,1.683-6.475,1.913   c-2.969,0.305-4.74-1.811-4.114-4.76c0.869-4.093,2.036-8.124,3.159-12.159c0.111-0.397,0.785-0.878,1.223-0.906   C34.831,52.815,36.527,52.877,38.457,52.877z" fill="#FFFFFF" fill-rule="evenodd"/><path clip-rule="evenodd" d="M116.862,49.282c2.224,4.405,4.303,8.52,6.437,12.749   c-4.371,4.128-8.675,8.197-12.979,12.263c-0.117-0.064-0.233-0.13-0.353-0.194c0.356-1.469,0.714-2.937,1.07-4.405   c-0.117-0.071-0.232-0.146-0.348-0.218c-1.641,1.498-3.282,2.997-5.339,4.876c2.345-8.443,4.541-16.352,6.874-24.758   c0.983,1.888,1.766,3.392,2.832,5.436C115.73,52.884,116.242,51.263,116.862,49.282z" fill="#FFFFFF" fill-rule="evenodd"/></g></svg>